<svg id="Layer_3" enable-background="new 0 0 64 64" height="512" viewBox="0 0 64 64" width="512" xmlns="http://www.w3.org/2000/svg"><path d="m60 62h-56c-1.105 0-2-.895-2-2v-50c0-1.105.895-2 2-2h56c1.105 0 2 .895 2 2v50c0 1.105-.895 2-2 2z" fill="#3f6530"/><path d="m6 12h52v46h-52z" fill="#5f9747"/><path d="m6 12h49v46h-49z" fill="#7ec95f"/><path d="m44 54c-4.418 0-8-3.582-8-8v-10c0-4.418 3.582-8 8-8 4.418 0 8 3.582 8 8v10c0 4.418-3.582 8-8 8z" fill="#868992"/><path d="m42.5 28.145c-3.701.703-6.5 3.95-6.5 7.855v10c0 3.905 2.799 7.152 6.5 7.855 3.701-.703 6.5-3.95 6.5-7.855v-10c0-3.905-2.799-7.152-6.5-7.855z" fill="#b3b6c2"/><path d="m20 54c-4.418 0-8-3.582-8-8v-10c0-4.418 3.582-8 8-8 4.418 0 8 3.582 8 8v10c0 4.418-3.582 8-8 8z" fill="#868992"/><path d="m18.5 28.145c-3.701.703-6.5 3.95-6.5 7.855v10c0 3.905 2.799 7.152 6.5 7.855 3.701-.703 6.5-3.95 6.5-7.855v-10c0-3.905-2.799-7.152-6.5-7.855z" fill="#b3b6c2"/><path d="m12 2h40v22h-40z" fill="#b3b6c2"/><path d="m16 6h32v14h-32z" fill="#4a83aa"/><path d="m16 6h29v14h-29z" fill="#63afe3"/><path d="m60 63h-56c-1.654 0-3-1.346-3-3v-50c0-1.654 1.346-3 3-3h8v2h-8c-.552 0-1 .448-1 1v50c0 .552.448 1 1 1h56c.552 0 1-.448 1-1v-50c0-.552-.448-1-1-1h-8v-2h8c1.654 0 3 1.346 3 3v50c0 1.654-1.346 3-3 3z"/><path d="m52 25h-40c-.553 0-1-.447-1-1v-22c0-.553.447-1 1-1h40c.553 0 1 .447 1 1v22c0 .553-.447 1-1 1zm-39-2h38v-20h-38z"/><path d="m48 21h-32c-.553 0-1-.447-1-1v-14c0-.553.447-1 1-1h32c.553 0 1 .447 1 1v14c0 .553-.447 1-1 1zm-31-2h30v-12h-30z"/><path d="m44 17h-4c-.553 0-1-.447-1-1v-6c0-.553.447-1 1-1h4c.553 0 1 .447 1 1v6c0 .553-.447 1-1 1zm-3-2h2v-4h-2z"/><path d="m36 17h-4c-.553 0-1-.447-1-1v-6c0-.553.447-1 1-1h4c.553 0 1 .447 1 1v6c0 .553-.447 1-1 1zm-3-2h2v-4h-2z"/><path d="m24 17h-4c-.553 0-1-.447-1-1v-6c0-.553.447-1 1-1h4c.553 0 1 .447 1 1v6c0 .553-.447 1-1 1zm-3-2h2v-4h-2z"/><path d="m27 15h2v2h-2z"/><path d="m58 59h-52c-.553 0-1-.447-1-1v-46c0-.553.447-1 1-1h6v2h-5v44h50v-44h-5v-2h6c.553 0 1 .447 1 1v46c0 .553-.447 1-1 1z"/><path d="m20 55c-4.963 0-9-4.037-9-9v-10c0-4.963 4.037-9 9-9s9 4.037 9 9v10c0 4.963-4.037 9-9 9zm0-26c-3.859 0-7 3.141-7 7v10c0 3.859 3.141 7 7 7s7-3.141 7-7v-10c0-3.859-3.141-7-7-7z"/><path d="m44 55c-4.963 0-9-4.037-9-9v-10c0-4.963 4.037-9 9-9s9 4.037 9 9v10c0 4.963-4.037 9-9 9zm0-26c-3.859 0-7 3.141-7 7v10c0 3.859 3.141 7 7 7s7-3.141 7-7v-10c0-3.859-3.141-7-7-7z"/></svg>