<svg height="512" viewBox="0 0 61 60" width="512" xmlns="http://www.w3.org/2000/svg"><g id="024---Utility-Rate" fill="none"><g id="Icons" transform="translate(2 1)"><path id="Shape" d="m58 2v13h-10v-13c0-1.1045695.8954305-2 2-2h6c1.1045695 0 2 .8954305 2 2z" fill="#ffdc00"/><path id="Shape" d="m56 0h-3c1.1045695 0 2 .8954305 2 2v13h3v-13c0-1.1045695-.8954305-2-2-2z" fill="#fec108"/><path id="Rectangle-path" d="m28 51h10v7h-10z" fill="#e91e63"/><path id="Rectangle-path" d="m38 27h10v15h-10z" fill="#00bcd4"/><path id="Rectangle-path" d="m48 15h10v20h-10z" fill="#f57c00"/><path id="Rectangle-path" d="m48 15h7v20h-7z" fill="#ff9801"/><path id="Shape" d="m38 35v16h-10v-16c0-1.1045695.8954305-2 2-2h6c1.1045695 0 2 .8954305 2 2z" fill="#ef314c"/><path id="Rectangle-path" d="m38 42h10v16h-10z" fill="#02a9f4"/><path id="Shape" d="m48 18v9h-10v-9c0-1.1045695.8954305-2 2-2h6c1.1045695 0 2 .8954305 2 2z" fill="#02a9f4"/><path id="Rectangle-path" d="m48 35h10v23h-10z" fill="#fec108"/><path id="Rectangle-path" d="m48 35h7v23h-7z" fill="#ffdc00"/><circle id="Oval" cx="14" cy="44" fill="#673ab7" r="14"/><path id="Shape" d="m21 46c0 3.8659932-3.1340068 7-7 7s-7-3.1340068-7-7c0-3.87 7-12 7-12s7 8.13 7 12z" fill="#02a9f4"/></g><g id="Layer_10" fill="#000"><path id="Shape" d="m58 0h-6c-1.6568542 0-3 1.34314575-3 3v13.18c-.74-.26-.52-.18-7-.18-1.6568542 0-3 1.3431458-3 3v14.18c-.74-.26-.52-.18-7-.18-1.6568542 0-3 1.3431458-3 3v1.55c-3.1264099-5.5070069-9.3744314-8.4573898-15.6134465-7.3728372-6.23901514 1.0845526-11.12483813 5.9703756-12.20939072 12.2093907-1.08455258 6.2390151 1.86583033 12.4870366 7.37283722 15.6134465h-6.55c-.55228475 0-1 .4477153-1 1s.44771525 1 1 1h58c.5522847 0 1-.4477153 1-1v-56c0-1.65685425-1.3431458-3-3-3zm-17 29h8v13h-8zm10-12h8v18h-8zm1-15h6c.5522847 0 1 .44771525 1 1v12h-8v-12c0-.55228475.4477153-1 1-1zm-10 16h6c.5522847 0 1 .4477153 1 1v8h-8v-8c0-.5522847.4477153-1 1-1zm-11 18c0-.5522847.4477153-1 1-1h6c.5522847 0 1 .4477153 1 1v15h-8zm-28 9c0-7.1797017 5.82029825-13 13-13 7.1797017 0 13 5.8202983 13 13s-5.8202983 13-13 13c-3.4478144 0-6.75441524-1.3696389-9.19238816-3.8076118-2.43797292-2.437973-3.80761184-5.7445738-3.80761184-9.1923882zm26 7.45v5.55h-5.55c2.3074558-1.3276823 4.2223177-3.2425442 5.55-5.55zm2 .55h8v5h-8zm10-9h8v14h-8zm10 14v-21h8v21z"/><path id="Shape" d="m38.34.29-5 5c-.3921222.39212217-.3921222 1.02787783 0 1.42s1.0278778.39212217 1.42 0l3.08-3.08c-1.56 19.1-20.99 19.37-21.84 19.37-.5522847 0-1 .4477153-1 1s.4477153 1 1 1c.23 0 22.43-.27 23.91-21.73l3.38 3.39c.1802283.20563782.4368023.32850422.71.34.4062651.00236262.77358-.24130378.929371-.61651849.1557909-.37521472.0690889-.80739105-.219371-1.09348151l-5-4.95c-.3715972-.37631796-.9719595-.39822899-1.37-.05z"/><path id="Shape" d="m15.24 34.35c-.74.86-7.24 8.53-7.24 12.65 0 4.418278 3.581722 8 8 8s8-3.581722 8-8c0-4.12-6.5-11.79-7.24-12.65-.1899882-.2221664-.4676758-.3500769-.76-.3500769s-.5700118.1279105-.76.3500769zm.76 18.65c-3.3137085 0-6-2.6862915-6-6 0-2.53 3.82-7.76 6-10.44 2.18 2.68 6 7.9 6 10.44 0 3.3137085-2.6862915 6-6 6z"/><path id="Shape" d="m15.45 49.11c-.8255738-.393787-1.378323-1.1981323-1.45-2.11 0-.5522847-.4477153-1-1-1s-1 .4477153-1 1c.0729326 1.6659836 1.0513789 3.1585938 2.55 3.89.3211808.1932607.7234705.1906728 1.0421383-.0067041.3186678-.1973768.5001928-.5563928.4702434-.9300368s-.2663431-.6991617-.6123817-.8432591z"/></g></g></svg>